<svg 
 xmlns="http://www.w3.org/2000/svg"
 xmlns:xlink="http://www.w3.org/1999/xlink"
 width="24px" height="28px">
<path fill-rule="evenodd"  fill="rgb(248, 90, 78)"
 d="M22.000,28.000 L2.000,28.000 C0.895,28.000 -0.000,27.104 -0.000,26.000 L-0.000,2.000 C-0.000,0.895 0.895,-0.000 2.000,-0.000 L17.999,-0.000 L24.000,6.000 L24.000,26.000 C24.000,27.104 23.104,28.000 22.000,28.000 Z"/>
<path fill-rule="evenodd"  fill="rgb(255, 255, 255)"
 d="M17.842,16.800 C17.598,16.506 17.096,16.364 16.309,16.364 C15.851,16.364 15.299,16.413 14.665,16.509 C12.935,15.232 12.452,13.823 12.452,13.823 C12.452,13.823 12.748,13.064 12.766,11.824 C12.778,11.040 12.658,10.511 12.347,10.203 C12.227,10.084 12.024,10.007 11.831,10.007 C11.685,10.005 11.542,10.051 11.424,10.137 C10.525,10.801 11.507,13.933 11.533,14.017 C11.096,15.098 10.592,16.151 10.024,17.170 C9.845,17.488 9.863,17.463 9.712,17.723 C9.712,17.723 8.190,18.445 7.452,19.331 C7.034,19.832 6.981,20.170 7.004,20.428 L7.004,20.433 C7.040,20.736 7.424,21.013 7.812,21.013 C7.828,21.013 7.844,21.013 7.860,21.012 C8.254,20.987 8.685,20.704 9.179,20.148 C9.505,19.781 9.929,19.135 10.438,18.227 C11.901,17.806 13.189,17.507 14.268,17.337 C15.059,17.767 16.237,18.253 17.038,18.253 C17.307,18.253 17.523,18.198 17.681,18.089 C17.870,17.958 17.950,17.796 18.000,17.495 C18.050,17.193 17.980,16.965 17.842,16.800 L17.842,16.800 ZM16.133,17.166 C16.836,17.166 17.217,17.270 17.412,17.356 C17.473,17.383 17.516,17.408 17.548,17.430 C17.493,17.466 17.385,17.510 17.188,17.510 C16.864,17.510 16.437,17.396 15.917,17.169 C15.991,17.167 16.062,17.166 16.133,17.166 L16.133,17.166 ZM11.963,10.636 C11.964,10.634 11.965,10.633 11.965,10.633 C12.116,10.713 12.187,11.276 12.173,11.603 C12.154,12.041 12.149,12.211 12.072,12.480 C11.866,11.918 11.852,10.909 11.964,10.636 L11.963,10.636 ZM12.019,15.079 C12.402,15.695 12.869,16.254 13.407,16.741 C12.418,16.952 11.467,17.217 10.876,17.422 C11.308,16.667 11.689,15.884 12.019,15.079 L12.019,15.079 ZM7.946,20.095 C8.032,19.951 8.266,19.672 8.861,19.130 C8.453,19.750 8.154,20.087 7.850,20.297 C7.875,20.231 7.907,20.161 7.946,20.096 L7.946,20.095 Z"/>
<path fill-rule="evenodd"  fill="rgb(255, 168, 161)"
 d="M17.999,-0.000 L24.000,6.000 L20.000,6.000 C18.895,6.000 17.999,5.105 17.999,4.000 L17.999,-0.000 Z"/>
</svg>
